<svg xmlns="http://www.w3.org/2000/svg" width="200" height="125.123" viewBox="0 0 200 125.123"><path d="M9.252,10.2c3.154-.125,10.847-.377,14.758-1.261-.127,1.641-.379,6.686-.379,16.272V29.5c3.532-2.9,6.434-4.416,9.965-4.416a10.388,10.388,0,0,1,9.082,4.668A19.791,19.791,0,0,1,45.2,39.968c0,11.729-5.55,18.415-16.777,18.415A21.16,21.16,0,0,1,19.6,56.238c-1.514.5-3.532,1.514-5.55,2.145L13.414,58c.127-3.407.127-9.838.127-18.542V23.316c0-4.036-.127-6.811-.252-9.207-.127-1.641-.5-1.893-4.288-1.893ZM28.424,55.985c4.289,0,6.307-5.172,6.307-14.758a20.832,20.832,0,0,0-1.766-9.334,4.548,4.548,0,0,0-4.036-2.523,5.809,5.809,0,0,0-4.668,2.775c-.63.884-.882,1.641-.882,11.6,0,8.2.379,8.452.884,9.461A4.54,4.54,0,0,0,28.424,55.985Zm38.849,1.641c-2.65,0-5.3-.254-9.461-.254-4.414,0-6.559.254-8.7.254V55.481c3.532-.127,4.036-.757,4.163-2.145.125-1.514.252-3.909.252-7.82V37.443c0-3.279,0-5.927-.127-7.063s-.632-1.514-3.911-1.386V26.848c4.416-.377,9.713-.5,14-1.386-.127,1.641-.252,4.668-.252,11.6v8.7c0,4.036.127,5.8.252,7.568s.632,2.018,3.784,2.4Zm-9.461-46.8c3.281,0,5.172,1.893,5.172,5.3,0,2.9-2.145,4.92-5.425,4.92a4.7,4.7,0,0,1-4.918-4.92,5,5,0,0,1,5.172-5.3Zm12.74-.632A93.008,93.008,0,0,0,84.3,8.937q-.256,7.817-.254,15.64V40.345c2.4-.632,7.568-6.938,9.586-10.6.379-.757.379-1.136-.63-1.136l-2.775-.252V26.218c4.668.127,9.461-.127,14.254-.379v2.145c-3.532.379-4.92.632-6.309,1.766a59.018,59.018,0,0,0-6.054,6.307c1.514,3.154,7.822,14.758,10.218,17.911a3.516,3.516,0,0,0,3.154,1.514l1.764.127-.125,2.143a93.5,93.5,0,0,0-14,.757C91.616,54.976,87.075,46.4,85.688,43.75c-.757-1.386-1.136-1.891-1.641-1.766,0,5.172-.125,7.7.127,11.352.127,1.641.5,2.145,3.911,2.27v2.145c-2.4,0-4.92-.252-9.082-.252-4.92,0-7.063.252-8.956.252V55.606c3.279-.125,3.784-.755,3.911-2.018.125-1.514.25-4.793.25-11.352V25.966c0-5.172,0-9.082-.125-12.361q0-1.135-1.514-1.136H70.425ZM40.156,88.78C38.01,95.591,33.849,98.87,26.911,98.87c-5.929,0-9.713-1.641-12.361-5.172-2.018-2.648-3.027-6.559-3.027-10.973,0-9.713,5.929-17.154,16.777-17.154,6.559,0,11.352,3.027,11.352,7.947,0,3.4-2.775,4.791-5.045,4.791a5.723,5.723,0,0,1-2.523-.63,1.971,1.971,0,0,1-.884-2.27,19,19,0,0,0,.379-2.65c0-3.152-1.136-4.666-3.532-4.666-3.911,0-5.929,5.677-5.929,13.5,0,3.152.379,6.684,1.514,8.827,1.261,2.9,3.279,4.541,6.307,4.541,3.784,0,6.181-2.143,7.947-7.063Zm7.189-9.207a70.47,70.47,0,0,0-.379-8.831,1.329,1.329,0,0,0-1.514-1.259h-2.27V67.337c3.784-.127,8.956-.379,12.613-1.514l.379.252c.252,1.514.5,5.172.632,7.443h.25c1.643-4.416,3.911-7.947,8.579-7.947A4.753,4.753,0,0,1,70.3,70.617c0,4.163-3.154,5.425-4.416,5.425s-2.143-.379-2.523-1.263c-.63-1.386-1.009-2.143-2.268-2.143-1.388,0-2.145,1.261-3.027,3.279a13.391,13.391,0,0,0-.632,4.541c0,7.191,0,11.227.127,12.993s.755,2.268,5.8,2.4l-.125,2.145c-3.532-.127-6.686-.254-10.343-.254-3.784,0-6.559.127-9.713.254l.377-2.145c3.027-.127,3.784-.5,3.784-1.766.127-1.766.252-5.172.252-9.082V79.571h-.252Zm42.76-5.8c0-3.786-1.263-5.8-3.786-5.8-2.9,0-4.286,1.641-4.286,4.668a14.08,14.08,0,0,0,.25,2.4,1.8,1.8,0,0,1-.755,1.891A6.894,6.894,0,0,1,78,78.06c-2.4,0-4.416-1.138-4.416-3.911,0-4.036,5.929-8.577,14.254-8.577,6.809,0,9.836,2.775,10.973,4.541a6.338,6.338,0,0,1,1.009,3.407v18.54c0,2.145.632,2.65,1.388,2.65,1.009,0,2.143-1.641,2.648-4.416L106,91.3c-1.136,5.425-4.416,7.7-8.956,7.7-3.911,0-6.054-1.641-6.686-4.92C87.327,97.1,84.175,99,80.9,99c-5.3,0-8.829-3.532-8.829-9.336,0-3.532,1.514-5.55,4.163-6.684,4.286-1.893,10.72-3.784,13.873-6.054V73.769Zm-7.947,14c0,2.775,1.136,5.8,3.911,5.8,2.018,0,2.9-1.261,3.532-2.523a9.37,9.37,0,0,0,.377-3.027V79.446c-1.388.884-3.532,1.893-5.172,2.9C83.291,83.357,82.157,84.616,82.157,87.771Zm24.974-21.063,4.036.125V64.815c.127-5.3,1.388-9.209,4.163-11.984a12.465,12.465,0,0,1,9.207-3.784c5.172,0,7.947,2.523,7.947,5.8,0,2.4-2.018,4.036-4.8,4.036a2.383,2.383,0,0,1-2.523-2.523c0-2.648-.377-4.791-2.268-4.791-1.263,0-2.018,1.134-2.272,3.279-.25,2.018.127,5.8.379,11.729h6.182l-.379,2.523-5.8.379c-.127,2.4-.127,6.559-.127,11.477,0,4.668,0,8.829.127,12.109.127,1.641.379,2.27,1.766,2.4a33.628,33.628,0,0,0,3.407.25l-.256,2.145c-2.4,0-6.179-.252-9.459-.252-3.407,0-7.443.252-9.713.252l.127-2.145c3.279-.125,3.784-.5,3.911-1.891.25-2.145.25-5.425.25-9.838V69.355l-4.286-.252.377-2.4Z" transform="translate(9.163 9.099)" fill="#fdc63e"/><path d="M90.072,43.227l-.254,2.4-7.693.5c0,2.65-.127,6.559-.127,11.856,0,5.55,0,9.334.254,11.6.125,1.641.755,2.4,2.018,2.4,2.648,0,4.286-2.9,4.918-5.55H90.2l.884,2.9c-1.514,3.659-5.3,6.182-10.849,6.182-3.027,0-5.675-1.009-6.936-2.523a6.949,6.949,0,0,1-1.261-4.541c0-5.172.252-16.777.252-22.326l-4.036-.379.252-2.4h3.784c.127-2.4.127-5.172.127-7.7A34.86,34.86,0,0,0,81.872,32l.757.127q-.331,5.607-.379,11.225h7.822v-.127Z" transform="translate(68.092 32.58)" fill="#fdc63e"/><path d="M190,10.091V115.033H10V10.091ZM200,0H0V125.123H200Z" fill="#fdc63e"/></svg>